<svg xmlns="http://www.w3.org/2000/svg" xmlns:xlink="http://www.w3.org/1999/xlink" width="192" zoomAndPan="magnify" viewBox="0 0 144 143.999998" height="192" preserveAspectRatio="xMidYMid meet" version="1.2"><defs><clipPath id="bdfa39ad54"><path d="M 43.59375 43.59375 L 100.40625 43.59375 L 100.40625 100.40625 L 43.59375 100.40625 Z M 43.59375 43.59375 "/></clipPath><clipPath id="f067daaefa"><path d="M 72 43.59375 C 56.3125 43.59375 43.59375 56.3125 43.59375 72 C 43.59375 87.6875 56.3125 100.40625 72 100.40625 C 87.6875 100.40625 100.40625 87.6875 100.40625 72 C 100.40625 56.3125 87.6875 43.59375 72 43.59375 Z M 72 43.59375 "/></clipPath><clipPath id="006f92ba83"><path d="M 52.476562 52.476562 L 91.523438 52.476562 L 91.523438 91.523438 L 52.476562 91.523438 Z M 52.476562 52.476562 "/></clipPath></defs><g id="c82dccd14e"><g clip-rule="nonzero" clip-path="url(#bdfa39ad54)"><g clip-rule="nonzero" clip-path="url(#f067daaefa)"><path style=" stroke:none;fill-rule:nonzero;fill:#ffffff;fill-opacity:1;" d="M 43.59375 43.59375 L 100.40625 43.59375 L 100.40625 100.40625 L 43.59375 100.40625 Z M 43.59375 43.59375 "/></g></g><g clip-rule="nonzero" clip-path="url(#006f92ba83)"><path style=" stroke:none;fill-rule:nonzero;fill:#8cc9f0;fill-opacity:1;" d="M 87.320312 52.476562 L 56.679688 52.476562 C 54.359375 52.476562 52.476562 54.359375 52.476562 56.679688 L 52.476562 81.195312 C 52.476562 83.511719 54.359375 85.398438 56.679688 85.398438 L 68.171875 85.398438 L 68.171875 86.929688 L 67.40625 86.929688 C 65.292969 86.929688 63.578125 88.648438 63.578125 90.757812 C 63.578125 91.183594 63.921875 91.523438 64.34375 91.523438 L 79.65625 91.523438 C 80.078125 91.523438 80.421875 91.183594 80.421875 90.757812 C 80.421875 88.648438 78.707031 86.929688 76.59375 86.929688 L 75.828125 86.929688 L 75.828125 85.398438 L 87.320312 85.398438 C 89.640625 85.398438 91.523438 83.511719 91.523438 81.195312 L 91.523438 56.679688 C 91.523438 54.359375 89.640625 52.476562 87.320312 52.476562 Z M 56.679688 54.007812 L 87.320312 54.007812 C 88.792969 54.007812 89.992188 55.207031 89.992188 56.679688 L 89.992188 77.742188 L 54.007812 77.742188 L 54.007812 56.679688 C 54.007812 55.207031 55.207031 54.007812 56.679688 54.007812 Z M 78.761719 89.992188 L 65.238281 89.992188 C 65.554688 89.101562 66.40625 88.460938 67.40625 88.460938 L 76.59375 88.460938 C 77.59375 88.460938 78.445312 89.101562 78.761719 89.992188 Z M 74.296875 86.929688 L 69.703125 86.929688 L 69.703125 85.398438 L 74.296875 85.398438 Z M 87.320312 83.867188 L 56.679688 83.867188 C 55.207031 83.867188 54.007812 82.667969 54.007812 81.195312 L 54.007812 79.273438 L 89.992188 79.273438 L 89.992188 81.195312 C 89.992188 82.667969 88.792969 83.867188 87.320312 83.867188 Z M 87.320312 83.867188 "/></g><path style=" stroke:none;fill-rule:nonzero;fill:#8cc9f0;fill-opacity:1;" d="M 63.578125 64.726562 C 64.960938 64.726562 66.042969 63.503906 65.851562 62.113281 L 68.210938 59.582031 C 68.949219 60.210938 69.972656 60.296875 70.785156 59.859375 L 73.546875 62.164062 C 73.386719 63.539062 74.46875 64.726562 75.828125 64.726562 C 77.09375 64.726562 78.125 63.695312 78.125 62.429688 L 80.683594 61.28125 C 81.046875 61.523438 81.484375 61.664062 81.953125 61.664062 C 83.21875 61.664062 84.25 60.632812 84.25 59.367188 C 84.25 58.097656 83.21875 57.070312 81.953125 57.070312 C 80.425781 57.070312 79.3125 58.542969 79.753906 60.019531 L 77.609375 60.980469 C 76.769531 59.949219 75.230469 59.839844 74.253906 60.757812 L 71.820312 58.730469 C 72.460938 57.21875 71.339844 55.539062 69.703125 55.539062 C 68.308594 55.539062 67.222656 56.777344 67.429688 58.171875 L 65.082031 60.695312 C 64.679688 60.34375 64.152344 60.132812 63.578125 60.132812 C 62.3125 60.132812 61.28125 61.164062 61.28125 62.429688 C 61.28125 63.695312 62.3125 64.726562 63.578125 64.726562 Z M 81.953125 58.601562 C 82.375 58.601562 82.71875 58.945312 82.71875 59.367188 C 82.71875 59.789062 82.375 60.132812 81.953125 60.132812 C 81.53125 60.132812 81.1875 59.789062 81.1875 59.367188 C 81.1875 58.945312 81.53125 58.601562 81.953125 58.601562 Z M 75.828125 61.664062 C 76.25 61.664062 76.59375 62.007812 76.59375 62.429688 C 76.59375 62.851562 76.25 63.195312 75.828125 63.195312 C 75.40625 63.195312 75.0625 62.851562 75.0625 62.429688 C 75.0625 62.007812 75.40625 61.664062 75.828125 61.664062 Z M 69.703125 57.070312 C 70.125 57.070312 70.46875 57.414062 70.46875 57.835938 C 70.46875 58.257812 70.125 58.601562 69.703125 58.601562 C 69.28125 58.601562 68.9375 58.257812 68.9375 57.835938 C 68.9375 57.414062 69.28125 57.070312 69.703125 57.070312 Z M 63.578125 61.664062 C 64 61.664062 64.34375 62.007812 64.34375 62.429688 C 64.34375 62.851562 64 63.195312 63.578125 63.195312 C 63.15625 63.195312 62.8125 62.851562 62.8125 62.429688 C 62.8125 62.007812 63.15625 61.664062 63.578125 61.664062 Z M 63.578125 61.664062 "/><path style=" stroke:none;fill-rule:nonzero;fill:#8cc9f0;fill-opacity:1;" d="M 58.984375 76.210938 C 59.222656 76.210938 84.398438 76.210938 85.015625 76.210938 C 85.441406 76.210938 85.78125 75.867188 85.78125 75.445312 C 85.78125 75.023438 85.441406 74.679688 85.015625 74.679688 L 84.25 74.679688 L 84.25 63.960938 C 84.25 63.539062 83.910156 63.195312 83.484375 63.195312 L 80.421875 63.195312 C 80 63.195312 79.65625 63.539062 79.65625 63.960938 L 79.65625 74.679688 L 78.125 74.679688 L 78.125 68.554688 C 78.125 68.132812 77.78125 67.789062 77.359375 67.789062 L 74.296875 67.789062 C 73.875 67.789062 73.53125 68.132812 73.53125 68.554688 L 73.53125 74.679688 L 72 74.679688 L 72 63.960938 C 72 63.539062 71.65625 63.195312 71.234375 63.195312 L 68.171875 63.195312 C 67.75 63.195312 67.40625 63.539062 67.40625 63.960938 L 67.40625 74.679688 L 65.875 74.679688 L 65.875 67.789062 C 65.875 67.367188 65.53125 67.023438 65.109375 67.023438 L 62.046875 67.023438 C 61.625 67.023438 61.28125 67.367188 61.28125 67.789062 L 61.28125 74.679688 L 58.984375 74.679688 C 58.558594 74.679688 58.21875 75.023438 58.21875 75.445312 C 58.21875 75.867188 58.558594 76.210938 58.984375 76.210938 Z M 81.1875 64.726562 L 82.71875 64.726562 L 82.71875 74.679688 L 81.1875 74.679688 Z M 75.0625 69.320312 L 76.59375 69.320312 L 76.59375 74.679688 L 75.0625 74.679688 Z M 68.9375 64.726562 L 70.46875 64.726562 L 70.46875 74.679688 L 68.9375 74.679688 Z M 62.8125 68.554688 L 64.34375 68.554688 L 64.34375 74.679688 L 62.8125 74.679688 Z M 62.8125 68.554688 "/><path style=" stroke:none;fill-rule:nonzero;fill:#8cc9f0;fill-opacity:1;" d="M 88.460938 81.570312 C 88.460938 81.78125 88.386719 81.964844 88.238281 82.113281 C 88.089844 82.261719 87.90625 82.335938 87.695312 82.335938 C 87.484375 82.335938 87.304688 82.261719 87.15625 82.113281 C 87.003906 81.964844 86.929688 81.78125 86.929688 81.570312 C 86.929688 81.359375 87.003906 81.179688 87.15625 81.03125 C 87.304688 80.878906 87.484375 80.804688 87.695312 80.804688 C 87.90625 80.804688 88.089844 80.878906 88.238281 81.03125 C 88.386719 81.179688 88.460938 81.359375 88.460938 81.570312 Z M 88.460938 81.570312 "/><path style=" stroke:none;fill-rule:nonzero;fill:#8cc9f0;fill-opacity:1;" d="M 84.632812 80.804688 L 83.101562 80.804688 C 82.679688 80.804688 82.335938 81.148438 82.335938 81.570312 C 82.335938 81.992188 82.679688 82.335938 83.101562 82.335938 L 84.632812 82.335938 C 85.058594 82.335938 85.398438 81.992188 85.398438 81.570312 C 85.398438 81.148438 85.058594 80.804688 84.632812 80.804688 Z M 84.632812 80.804688 "/><path style=" stroke:none;fill-rule:nonzero;fill:#8cc9f0;fill-opacity:1;" d="M 80.039062 80.804688 L 78.507812 80.804688 C 78.085938 80.804688 77.742188 81.148438 77.742188 81.570312 C 77.742188 81.992188 78.085938 82.335938 78.507812 82.335938 L 80.039062 82.335938 C 80.460938 82.335938 80.804688 81.992188 80.804688 81.570312 C 80.804688 81.148438 80.460938 80.804688 80.039062 80.804688 Z M 80.039062 80.804688 "/></g></svg>