<svg xmlns="http://www.w3.org/2000/svg" xmlns:xlink="http://www.w3.org/1999/xlink" width="500" zoomAndPan="magnify" viewBox="0 0 375 374.999991" height="500" preserveAspectRatio="xMidYMid meet" version="1.2"><defs><clipPath id="97f8747252"><path d="M 112.5 112.5 L 262.5 112.5 L 262.5 262.5 L 112.5 262.5 Z M 112.5 112.5 "/></clipPath></defs><g id="7815899ac2"><g clip-rule="nonzero" clip-path="url(#97f8747252)"><path style=" stroke:none;fill-rule:nonzero;fill:#8cc9f0;fill-opacity:1;" d="M 246.347656 112.5 L 128.652344 112.5 C 119.746094 112.5 112.5 119.746094 112.5 128.652344 L 112.5 222.816406 C 112.5 231.722656 119.746094 238.96875 128.652344 238.96875 L 172.792969 238.96875 L 172.792969 244.851562 L 169.851562 244.851562 C 161.742188 244.851562 155.148438 251.449219 155.148438 259.558594 C 155.148438 261.183594 156.464844 262.5 158.089844 262.5 L 216.910156 262.5 C 218.535156 262.5 219.851562 261.183594 219.851562 259.558594 C 219.851562 251.449219 213.257812 244.851562 205.148438 244.851562 L 202.207031 244.851562 L 202.207031 238.96875 L 246.347656 238.96875 C 255.253906 238.96875 262.5 231.722656 262.5 222.816406 L 262.5 128.652344 C 262.5 119.746094 255.253906 112.5 246.347656 112.5 Z M 128.652344 118.382812 L 246.347656 118.382812 C 252.011719 118.382812 256.617188 122.988281 256.617188 128.652344 L 256.617188 209.558594 L 118.382812 209.558594 L 118.382812 128.652344 C 118.382812 122.988281 122.988281 118.382812 128.652344 118.382812 Z M 213.464844 256.617188 L 161.535156 256.617188 C 162.746094 253.195312 166.019531 250.734375 169.851562 250.734375 L 205.148438 250.734375 C 208.980469 250.734375 212.253906 253.195312 213.464844 256.617188 Z M 196.324219 244.851562 L 178.675781 244.851562 L 178.675781 238.96875 L 196.324219 238.96875 Z M 246.347656 233.089844 L 128.652344 233.089844 C 122.988281 233.089844 118.382812 228.480469 118.382812 222.816406 L 118.382812 215.441406 L 256.617188 215.441406 L 256.617188 222.816406 C 256.617188 228.480469 252.011719 233.089844 246.347656 233.089844 Z M 246.347656 233.089844 "/></g><path style=" stroke:none;fill-rule:nonzero;fill:#8cc9f0;fill-opacity:1;" d="M 155.148438 159.558594 C 160.460938 159.558594 164.617188 154.863281 163.886719 149.53125 L 172.953125 139.796875 C 175.78125 142.210938 179.707031 142.542969 182.832031 140.871094 L 193.445312 149.710938 C 192.832031 154.992188 196.976562 159.558594 202.207031 159.558594 C 207.070312 159.558594 211.027344 155.601562 211.03125 150.734375 L 220.859375 146.320312 C 222.257812 147.25 223.933594 147.792969 225.734375 147.792969 C 230.601562 147.792969 234.558594 143.835938 234.558594 138.96875 C 234.558594 134.105469 230.601562 130.148438 225.734375 130.148438 C 219.871094 130.148438 215.589844 135.8125 217.277344 141.480469 L 209.050781 145.175781 C 205.820312 141.203125 199.90625 140.785156 196.160156 144.320312 L 186.804688 136.523438 C 189.265625 130.714844 184.972656 124.265625 178.675781 124.265625 C 173.324219 124.265625 169.152344 129.03125 169.949219 134.390625 L 160.925781 144.078125 C 159.378906 142.730469 157.355469 141.910156 155.148438 141.910156 C 150.28125 141.910156 146.324219 145.871094 146.324219 150.734375 C 146.324219 155.601562 150.28125 159.558594 155.148438 159.558594 Z M 225.734375 136.03125 C 227.355469 136.03125 228.675781 137.347656 228.675781 138.96875 C 228.675781 140.59375 227.355469 141.910156 225.734375 141.910156 C 224.113281 141.910156 222.792969 140.59375 222.792969 138.96875 C 222.792969 137.347656 224.113281 136.03125 225.734375 136.03125 Z M 202.207031 147.792969 C 203.828125 147.792969 205.148438 149.113281 205.148438 150.734375 C 205.148438 152.355469 203.828125 153.675781 202.207031 153.675781 C 200.585938 153.675781 199.265625 152.355469 199.265625 150.734375 C 199.265625 149.113281 200.585938 147.792969 202.207031 147.792969 Z M 178.675781 130.148438 C 180.296875 130.148438 181.617188 131.464844 181.617188 133.089844 C 181.617188 134.710938 180.296875 136.03125 178.675781 136.03125 C 177.054688 136.03125 175.734375 134.710938 175.734375 133.089844 C 175.734375 131.464844 177.054688 130.148438 178.675781 130.148438 Z M 155.148438 147.792969 C 156.769531 147.792969 158.089844 149.113281 158.089844 150.734375 C 158.089844 152.355469 156.769531 153.675781 155.148438 153.675781 C 153.523438 153.675781 152.207031 152.355469 152.207031 150.734375 C 152.207031 149.113281 153.523438 147.792969 155.148438 147.792969 Z M 155.148438 147.792969 "/><path style=" stroke:none;fill-rule:nonzero;fill:#8cc9f0;fill-opacity:1;" d="M 137.5 203.675781 C 138.414062 203.675781 235.128906 203.675781 237.5 203.675781 C 239.125 203.675781 240.441406 202.359375 240.441406 200.734375 C 240.441406 199.109375 239.125 197.792969 237.5 197.792969 L 234.558594 197.792969 L 234.558594 156.617188 C 234.558594 154.992188 233.242188 153.675781 231.617188 153.675781 L 219.851562 153.675781 C 218.230469 153.675781 216.910156 154.992188 216.910156 156.617188 L 216.910156 197.792969 L 211.03125 197.792969 L 211.03125 174.265625 C 211.03125 172.640625 209.710938 171.324219 208.089844 171.324219 L 196.324219 171.324219 C 194.699219 171.324219 193.382812 172.640625 193.382812 174.265625 L 193.382812 197.792969 L 187.5 197.792969 L 187.5 156.617188 C 187.5 154.992188 186.183594 153.675781 184.558594 153.675781 L 172.792969 153.675781 C 171.167969 153.675781 169.851562 154.992188 169.851562 156.617188 L 169.851562 197.792969 L 163.96875 197.792969 L 163.96875 171.324219 C 163.96875 169.699219 162.652344 168.382812 161.03125 168.382812 L 149.265625 168.382812 C 147.640625 168.382812 146.324219 169.699219 146.324219 171.324219 L 146.324219 197.792969 L 137.5 197.792969 C 135.875 197.792969 134.558594 199.109375 134.558594 200.734375 C 134.558594 202.359375 135.875 203.675781 137.5 203.675781 Z M 222.792969 159.558594 L 228.675781 159.558594 L 228.675781 197.792969 L 222.792969 197.792969 Z M 199.265625 177.207031 L 205.148438 177.207031 L 205.148438 197.792969 L 199.265625 197.792969 Z M 175.734375 159.558594 L 181.617188 159.558594 L 181.617188 197.792969 L 175.734375 197.792969 Z M 152.207031 174.265625 L 158.089844 174.265625 L 158.089844 197.792969 L 152.207031 197.792969 Z M 152.207031 174.265625 "/><path style=" stroke:none;fill-rule:nonzero;fill:#8cc9f0;fill-opacity:1;" d="M 250.734375 224.265625 C 250.734375 224.65625 250.660156 225.03125 250.511719 225.390625 C 250.363281 225.75 250.148438 226.070312 249.875 226.34375 C 249.597656 226.621094 249.28125 226.832031 248.917969 226.980469 C 248.558594 227.132812 248.183594 227.207031 247.792969 227.207031 C 247.402344 227.207031 247.027344 227.132812 246.667969 226.980469 C 246.308594 226.832031 245.988281 226.621094 245.714844 226.34375 C 245.4375 226.070312 245.226562 225.75 245.078125 225.390625 C 244.925781 225.03125 244.851562 224.65625 244.851562 224.265625 C 244.851562 223.875 244.925781 223.5 245.078125 223.140625 C 245.226562 222.777344 245.4375 222.460938 245.714844 222.183594 C 245.988281 221.910156 246.308594 221.695312 246.667969 221.546875 C 247.027344 221.398438 247.402344 221.324219 247.792969 221.324219 C 248.183594 221.324219 248.558594 221.398438 248.917969 221.546875 C 249.28125 221.695312 249.597656 221.910156 249.875 222.183594 C 250.148438 222.460938 250.363281 222.777344 250.511719 223.140625 C 250.660156 223.5 250.734375 223.875 250.734375 224.265625 Z M 250.734375 224.265625 "/><path style=" stroke:none;fill-rule:nonzero;fill:#8cc9f0;fill-opacity:1;" d="M 236.03125 221.324219 L 230.148438 221.324219 C 228.523438 221.324219 227.207031 222.640625 227.207031 224.265625 C 227.207031 225.890625 228.523438 227.207031 230.148438 227.207031 L 236.03125 227.207031 C 237.652344 227.207031 238.96875 225.890625 238.96875 224.265625 C 238.96875 222.640625 237.652344 221.324219 236.03125 221.324219 Z M 236.03125 221.324219 "/><path style=" stroke:none;fill-rule:nonzero;fill:#8cc9f0;fill-opacity:1;" d="M 218.382812 221.324219 L 212.5 221.324219 C 210.875 221.324219 209.558594 222.640625 209.558594 224.265625 C 209.558594 225.890625 210.875 227.207031 212.5 227.207031 L 218.382812 227.207031 C 220.007812 227.207031 221.324219 225.890625 221.324219 224.265625 C 221.324219 222.640625 220.007812 221.324219 218.382812 221.324219 Z M 218.382812 221.324219 "/></g></svg>