<svg xmlns="http://www.w3.org/2000/svg" width="192" height="192" version="1.2" viewBox="0 0 144 144"><defs><clipPath id="a"><path d="M43.594 43.594h56.812v56.812H43.594Zm0 0"/></clipPath><clipPath id="b"><path d="M72 43.594c-15.687 0-28.406 12.718-28.406 28.406S56.312 100.406 72 100.406 100.406 87.687 100.406 72 87.687 43.594 72 43.594m0 0"/></clipPath><clipPath id="c"><path d="M52.477 52.477h39.046v39.046H52.477Zm0 0"/></clipPath></defs><g clip-path="url(#a)"><g clip-path="url(#b)"><path d="M43.594 43.594h56.812v56.812H43.594Zm0 0" style="stroke:none;fill-rule:nonzero;fill:#fff;fill-opacity:1"/></g></g><g clip-path="url(#c)"><path d="M87.32 52.477H56.68a4.204 4.204 0 0 0-4.203 4.203v24.515a4.207 4.207 0 0 0 4.203 4.203h11.492v1.532h-.766a3.83 3.83 0 0 0-3.828 3.828c0 .426.344.765.766.765h15.312c.422 0 .766-.34.766-.765a3.83 3.83 0 0 0-3.828-3.828h-.766v-1.532H87.32a4.207 4.207 0 0 0 4.203-4.203V56.68a4.204 4.204 0 0 0-4.203-4.203m-30.64 1.53h30.64c1.473 0 2.672 1.2 2.672 2.673v21.062H54.008V56.68c0-1.473 1.199-2.672 2.672-2.672m22.082 35.985H65.238a2.3 2.3 0 0 1 2.168-1.531h9.188c1 0 1.851.64 2.168 1.531m-4.465-3.062h-4.594v-1.532h4.594Zm13.023-3.063H56.68a2.676 2.676 0 0 1-2.672-2.672v-1.922h35.984v1.922c0 1.473-1.199 2.672-2.672 2.672m0 0" style="stroke:none;fill-rule:nonzero;fill:#8cc9f0;fill-opacity:1"/></g><path d="M63.578 64.727a2.298 2.298 0 0 0 2.274-2.614l2.359-2.531a2.29 2.29 0 0 0 2.574.277l2.762 2.305a2.3 2.3 0 0 0 2.281 2.563 2.3 2.3 0 0 0 2.297-2.297l2.559-1.149c.363.242.8.383 1.27.383a2.3 2.3 0 0 0 2.296-2.297 2.295 2.295 0 1 0-4.496.652l-2.145.961a2.296 2.296 0 0 0-3.355-.222L71.82 58.73a2.298 2.298 0 1 0-4.39-.559l-2.348 2.524a2.28 2.28 0 0 0-1.504-.562 2.3 2.3 0 0 0-2.297 2.297 2.3 2.3 0 0 0 2.297 2.297m18.375-6.125a.767.767 0 0 1 0 1.53.767.767 0 0 1 0-1.53m-6.125 3.062a.767.767 0 0 1 0 1.531.767.767 0 0 1 0-1.53m-6.125-4.594a.767.767 0 0 1 0 1.532.767.767 0 0 1 0-1.532m-6.125 4.594a.767.767 0 0 1 0 1.531.767.767 0 0 1 0-1.53m0 0" style="stroke:none;fill-rule:nonzero;fill:#8cc9f0;fill-opacity:1"/><path d="M58.984 76.21h26.032a.764.764 0 0 0 .765-.765.764.764 0 0 0-.765-.765h-.766V63.96a.764.764 0 0 0-.766-.765h-3.062a.767.767 0 0 0-.766.766V74.68h-1.531v-6.125a.767.767 0 0 0-.766-.766h-3.062a.767.767 0 0 0-.766.766v6.125H72V63.96a.767.767 0 0 0-.766-.765h-3.062a.767.767 0 0 0-.766.766V74.68h-1.531v-6.89a.767.767 0 0 0-.766-.767h-3.062a.767.767 0 0 0-.766.766v6.89h-2.297a.764.764 0 0 0-.765.766c0 .422.34.766.765.766m22.204-11.483h1.53v9.953h-1.53Zm-6.126 4.593h1.532v5.36h-1.531Zm-6.124-4.593h1.53v9.953h-1.53Zm-6.126 3.828h1.532v6.125h-1.531ZM88.46 81.57c0 .211-.073.395-.222.543a.74.74 0 0 1-.543.223.73.73 0 0 1-.539-.223.73.73 0 0 1-.226-.543q-.001-.315.226-.539a.72.72 0 0 1 .54-.226c.21 0 .394.074.542.226a.73.73 0 0 1 .223.54M84.633 80.805h-1.531a.767.767 0 0 0 0 1.53h1.53a.764.764 0 0 0 .766-.765.764.764 0 0 0-.765-.765M80.04 80.805h-1.532a.767.767 0 0 0 0 1.53h1.531a.767.767 0 0 0 0-1.53m0 0" style="stroke:none;fill-rule:nonzero;fill:#8cc9f0;fill-opacity:1"/></svg>