<svg xmlns="http://www.w3.org/2000/svg" xmlns:xlink="http://www.w3.org/1999/xlink" width="500" zoomAndPan="magnify" viewBox="0 0 375 374.999991" height="500" preserveAspectRatio="xMidYMid meet" version="1.2"><defs><clipPath id="ab4deeeb97"><path d="M 154.714844 154.714844 L 220.285156 154.714844 L 220.285156 220.285156 L 154.714844 220.285156 Z M 154.714844 154.714844 "/></clipPath><clipPath id="5e2b99d6b7"><path d="M 187.5 154.714844 C 169.394531 154.714844 154.714844 169.394531 154.714844 187.5 C 154.714844 205.605469 169.394531 220.285156 187.5 220.285156 C 205.605469 220.285156 220.285156 205.605469 220.285156 187.5 C 220.285156 169.394531 205.605469 154.714844 187.5 154.714844 Z M 187.5 154.714844 "/></clipPath><clipPath id="8e528439e7"><path d="M 164.964844 164.964844 L 210.035156 164.964844 L 210.035156 210.035156 L 164.964844 210.035156 Z M 164.964844 164.964844 "/></clipPath></defs><g id="a6fb02fa97"><g clip-rule="nonzero" clip-path="url(#ab4deeeb97)"><g clip-rule="nonzero" clip-path="url(#5e2b99d6b7)"><path style=" stroke:none;fill-rule:nonzero;fill:#ffffff;fill-opacity:1;" d="M 154.714844 154.714844 L 220.285156 154.714844 L 220.285156 220.285156 L 154.714844 220.285156 Z M 154.714844 154.714844 "/></g></g><g clip-rule="nonzero" clip-path="url(#8e528439e7)"><path style=" stroke:none;fill-rule:nonzero;fill:#8cc9f0;fill-opacity:1;" d="M 205.179688 164.964844 L 169.820312 164.964844 C 167.144531 164.964844 164.964844 167.144531 164.964844 169.820312 L 164.964844 198.109375 C 164.964844 200.785156 167.144531 202.964844 169.820312 202.964844 L 183.082031 202.964844 L 183.082031 204.730469 L 182.199219 204.730469 C 179.761719 204.730469 177.78125 206.714844 177.78125 209.148438 C 177.78125 209.636719 178.175781 210.035156 178.664062 210.035156 L 196.335938 210.035156 C 196.824219 210.035156 197.21875 209.636719 197.21875 209.148438 C 197.21875 206.714844 195.238281 204.730469 192.800781 204.730469 L 191.917969 204.730469 L 191.917969 202.964844 L 205.179688 202.964844 C 207.855469 202.964844 210.035156 200.785156 210.035156 198.109375 L 210.035156 169.820312 C 210.035156 167.144531 207.855469 164.964844 205.179688 164.964844 Z M 169.820312 166.734375 L 205.179688 166.734375 C 206.882812 166.734375 208.265625 168.117188 208.265625 169.820312 L 208.265625 194.128906 L 166.734375 194.128906 L 166.734375 169.820312 C 166.734375 168.117188 168.117188 166.734375 169.820312 166.734375 Z M 195.300781 208.265625 L 179.699219 208.265625 C 180.0625 207.238281 181.046875 206.5 182.199219 206.5 L 192.800781 206.5 C 193.953125 206.5 194.9375 207.238281 195.300781 208.265625 Z M 190.152344 204.730469 L 184.847656 204.730469 L 184.847656 202.964844 L 190.152344 202.964844 Z M 205.179688 201.195312 L 169.820312 201.195312 C 168.117188 201.195312 166.734375 199.8125 166.734375 198.109375 L 166.734375 195.894531 L 208.265625 195.894531 L 208.265625 198.109375 C 208.265625 199.8125 206.882812 201.195312 205.179688 201.195312 Z M 205.179688 201.195312 "/></g><path style=" stroke:none;fill-rule:nonzero;fill:#8cc9f0;fill-opacity:1;" d="M 177.78125 179.105469 C 179.375 179.105469 180.625 177.695312 180.40625 176.09375 L 183.128906 173.167969 C 183.980469 173.894531 185.160156 173.992188 186.097656 173.488281 L 189.285156 176.148438 C 189.101562 177.734375 190.347656 179.105469 191.917969 179.105469 C 193.378906 179.105469 194.570312 177.917969 194.570312 176.453125 L 197.523438 175.128906 C 197.941406 175.40625 198.445312 175.570312 198.988281 175.570312 C 200.449219 175.570312 201.636719 174.382812 201.636719 172.917969 C 201.636719 171.457031 200.449219 170.269531 198.988281 170.269531 C 197.226562 170.269531 195.941406 171.96875 196.445312 173.671875 L 193.976562 174.785156 C 193.003906 173.589844 191.226562 173.464844 190.101562 174.527344 L 187.289062 172.183594 C 188.03125 170.441406 186.738281 168.5 184.847656 168.5 C 183.242188 168.5 181.988281 169.933594 182.226562 171.542969 L 179.515625 174.453125 C 179.050781 174.050781 178.445312 173.804688 177.78125 173.804688 C 176.316406 173.804688 175.128906 174.992188 175.128906 176.453125 C 175.128906 177.914062 176.316406 179.105469 177.78125 179.105469 Z M 198.988281 172.035156 C 199.476562 172.035156 199.871094 172.433594 199.871094 172.917969 C 199.871094 173.40625 199.476562 173.804688 198.988281 173.804688 C 198.5 173.804688 198.105469 173.40625 198.105469 172.917969 C 198.105469 172.433594 198.5 172.035156 198.988281 172.035156 Z M 191.917969 175.570312 C 192.40625 175.570312 192.800781 175.96875 192.800781 176.453125 C 192.800781 176.941406 192.40625 177.335938 191.917969 177.335938 C 191.429688 177.335938 191.035156 176.941406 191.035156 176.453125 C 191.035156 175.96875 191.429688 175.570312 191.917969 175.570312 Z M 184.847656 170.269531 C 185.335938 170.269531 185.734375 170.664062 185.734375 171.152344 C 185.734375 171.640625 185.335938 172.035156 184.847656 172.035156 C 184.363281 172.035156 183.964844 171.640625 183.964844 171.152344 C 183.964844 170.664062 184.363281 170.269531 184.847656 170.269531 Z M 177.78125 175.570312 C 178.265625 175.570312 178.664062 175.96875 178.664062 176.453125 C 178.664062 176.941406 178.265625 177.335938 177.78125 177.335938 C 177.292969 177.335938 176.894531 176.941406 176.894531 176.453125 C 176.894531 175.96875 177.292969 175.570312 177.78125 175.570312 Z M 177.78125 175.570312 "/><path style=" stroke:none;fill-rule:nonzero;fill:#8cc9f0;fill-opacity:1;" d="M 172.476562 192.359375 C 172.753906 192.359375 201.808594 192.359375 202.523438 192.359375 C 203.011719 192.359375 203.40625 191.964844 203.40625 191.476562 C 203.40625 190.988281 203.011719 190.59375 202.523438 190.59375 L 201.636719 190.59375 L 201.636719 178.222656 C 201.636719 177.734375 201.242188 177.335938 200.753906 177.335938 L 197.21875 177.335938 C 196.730469 177.335938 196.335938 177.734375 196.335938 178.222656 L 196.335938 190.59375 L 194.570312 190.59375 L 194.570312 183.523438 C 194.570312 183.035156 194.171875 182.640625 193.6875 182.640625 L 190.152344 182.640625 C 189.664062 182.640625 189.265625 183.035156 189.265625 183.523438 L 189.265625 190.59375 L 187.5 190.59375 L 187.5 178.222656 C 187.5 177.734375 187.105469 177.335938 186.617188 177.335938 L 183.082031 177.335938 C 182.59375 177.335938 182.199219 177.734375 182.199219 178.222656 L 182.199219 190.59375 L 180.429688 190.59375 L 180.429688 182.640625 C 180.429688 182.152344 180.035156 181.757812 179.546875 181.757812 L 176.011719 181.757812 C 175.523438 181.757812 175.128906 182.152344 175.128906 182.640625 L 175.128906 190.59375 L 172.476562 190.59375 C 171.988281 190.59375 171.59375 190.988281 171.59375 191.476562 C 171.59375 191.964844 171.988281 192.359375 172.476562 192.359375 Z M 198.105469 179.105469 L 199.871094 179.105469 L 199.871094 190.59375 L 198.105469 190.59375 Z M 191.035156 184.40625 L 192.800781 184.40625 L 192.800781 190.59375 L 191.035156 190.59375 Z M 183.964844 179.105469 L 185.734375 179.105469 L 185.734375 190.59375 L 183.964844 190.59375 Z M 176.894531 183.523438 L 178.664062 183.523438 L 178.664062 190.59375 L 176.894531 190.59375 Z M 176.894531 183.523438 "/><path style=" stroke:none;fill-rule:nonzero;fill:#8cc9f0;fill-opacity:1;" d="M 206.5 198.546875 C 206.5 198.789062 206.414062 198.996094 206.238281 199.171875 C 206.066406 199.34375 205.859375 199.429688 205.613281 199.429688 C 205.371094 199.429688 205.164062 199.34375 204.988281 199.171875 C 204.816406 198.996094 204.730469 198.789062 204.730469 198.546875 C 204.730469 198.300781 204.816406 198.09375 204.988281 197.921875 C 205.164062 197.75 205.371094 197.660156 205.613281 197.660156 C 205.859375 197.660156 206.066406 197.75 206.238281 197.921875 C 206.414062 198.09375 206.5 198.300781 206.5 198.546875 Z M 206.5 198.546875 "/><path style=" stroke:none;fill-rule:nonzero;fill:#8cc9f0;fill-opacity:1;" d="M 202.082031 197.660156 L 200.3125 197.660156 C 199.824219 197.660156 199.429688 198.058594 199.429688 198.546875 C 199.429688 199.035156 199.824219 199.429688 200.3125 199.429688 L 202.082031 199.429688 C 202.566406 199.429688 202.964844 199.035156 202.964844 198.546875 C 202.964844 198.058594 202.566406 197.660156 202.082031 197.660156 Z M 202.082031 197.660156 "/><path style=" stroke:none;fill-rule:nonzero;fill:#8cc9f0;fill-opacity:1;" d="M 196.777344 197.660156 L 195.011719 197.660156 C 194.523438 197.660156 194.128906 198.058594 194.128906 198.546875 C 194.128906 199.035156 194.523438 199.429688 195.011719 199.429688 L 196.777344 199.429688 C 197.265625 199.429688 197.660156 199.035156 197.660156 198.546875 C 197.660156 198.058594 197.265625 197.660156 196.777344 197.660156 Z M 196.777344 197.660156 "/></g></svg>